# xmcd CD database file
#
# Track frame offsets:
#	150
#	11632
#	24045
#	33892
#	42780
#	53290
#	63090
#	74822
#	82867
#	95197
#	105555
#	115802
#	126167
#	134220
#	143985
#	153910
#	166695
#	175452
#
# Disc length: 2462 seconds
#
# Revision: 0
# Processed by: cddbd v1.5.2PL0 Copyright (c) Steve Scherf et al.
# Submitted via: CDex 1.51
#
DISCID=e8099c12
DTITLE=Domino, Fats - Goin' back to New Orleans
DYEAR=1900
DGENRE=Jazz
TTITLE0=Going To The River
TTITLE1=You Said You Love Me
TTITLE2=If You Need Me
TTITLE3=Love Me
TTITLE4=Poor Me
TTITLE5=So Long
TTITLE6=Before I Grow Too Old
TTITLE7=Three Nights A Week
TTITLE8=It Keeps Rainin
TTITLE9=Good Hearted Man
TTITLE10=You Win Again
TTITLE11=My Happiness
TTITLE12=My Heart Is Bleeding
TTITLE13=Nothing New
TTITLE14=True Confession
TTITLE15=One Night
TTITLE16=Goin' Back Home
TTITLE17=Set Me Free
EXTD=
EXTT0=
EXTT1=
EXTT2=
EXTT3=
EXTT4=
EXTT5=
EXTT6=
EXTT7=
EXTT8=
EXTT9=
EXTT10=
EXTT11=
EXTT12=
EXTT13=
EXTT14=
EXTT15=
EXTT16=
EXTT17=
PLAYORDER=
